<svg xmlns="http://www.w3.org/2000/svg" viewBox="0 0 819.64 359.71">
  <path d="M1077.67,700.2c-1.52-43.25,13.5-87.81,30.34-127.68-16.5-6-277.3-61.18-404.08-81.31S441.45,471.14,327.3,529.89c61.85,52.65,83.86,155.41,37.39,246.21,116,19.59,232.79,39.25,350.43,37.62S952.59,787.93,1077.67,700.2Z" transform="translate(-304.99 -466.6)" fill="#fff" stroke="#000" stroke-miterlimit="10" stroke-width="25"/>
  <path d="M501.31,481.05c-33.77,38.82-46.45,94.94-32.67,144.5C477,655.43,494,682.27,503,712s7.91,65.95-15,86.87" transform="translate(-304.99 -466.6)" fill="#fff" stroke="#000" stroke-miterlimit="10" stroke-width="25"/>
  <path d="M621.38,483.83c-33.6,47.9-43.86,111.42-27,167.46,8.14,27.14,22.17,52.31,29.29,79.74s6,59.47-13,80.5" transform="translate(-304.99 -466.6)" fill="#fff" stroke="#000" stroke-miterlimit="10" stroke-width="25"/>
  <path d="M733.32,498.92c-13,29.18-25.42,58.83-32,90.07s-7.06,64.43,3.7,94.48c7.85,21.93,21.37,41.52,28.86,63.58s7.6,49.13-8.72,65.76" transform="translate(-304.99 -466.6)" fill="#fff" stroke="#000" stroke-miterlimit="10" stroke-width="25"/>
  <path d="M1025.72,554.28c-12.67,15.51-13.68,37.75-9.1,57.25S1030.59,649,1037,668s9.54,40.3,1.62,58.69" transform="translate(-304.99 -466.6)" fill="#fff" stroke="#000" stroke-miterlimit="10" stroke-width="25"/>
  <path d="M853.67,515.71c-37.78,36.43-52.37,95-36.08,144.94,7.93,24.27,22.33,46,30.32,70.28s8.17,53.79-9.48,72.24" transform="translate(-304.99 -466.6)" fill="#fff" stroke="#000" stroke-miterlimit="10" stroke-width="25"/>
  <path d="M947.61,543.17c-18.45,18.64-26,47.35-19.19,72.66,5.56,20.54,19.47,37.77,27.24,57.57,12.14,31,7.83,67.84-11.13,95.15" transform="translate(-304.99 -466.6)" fill="#fff" stroke="#000" stroke-miterlimit="10" stroke-width="25"/>
</svg>
