<svg xmlns="http://www.w3.org/2000/svg" width="90" height="90" viewBox="0 0 341.17 323.73"><path d="M330.09,98.84c-.59-1.25-1.21-2.49-1.85-3.72C300.53,41.22,242.18,4,174.85,4c-67,0-125.15,36.88-153,90.38-.63,1.23-1.26,2.46-1.87,3.71a154.23,154.23,0,0,0,0,135.49c.61,1.25,1.24,2.48,1.87,3.71,27.86,53.53,86,90.44,153,90.44,67.37,0,125.72-37.25,153.43-91.18.64-1.23,1.26-2.47,1.85-3.72a154.26,154.26,0,0,0,0-134ZM174.84,8C240.93,8,298.14,44.71,325,97.82l-21.47,17.69H235.44l17.79-12.83,3.32-2.39c-.91-1-1.81-2-2.76-3a109.44,109.44,0,0,0-78.94-33c-39.75,0-74.48,20.67-93,51.26H47.45L25.08,97.07C52.08,44.37,109.06,8,174.84,8Zm53.23,107.89a77.69,77.69,0,0,0-106.14-.33H86.7c18-28.3,50.8-47.31,88.15-47.31a105.26,105.26,0,0,1,75.61,31.5ZM174.84,323.77c-65.79,0-122.77-36.42-149.77-89.12L46.51,217H114.6L96.81,229.8l-3.32,2.4c.9,1,1.81,2,2.75,3a109.48,109.48,0,0,0,79,33.05c39.75,0,74.48-20.67,92.95-51.27h34.45l21.83,18C297.36,287.52,240.5,323.77,174.84,323.77Zm78.06-93.24a106.43,106.43,0,0,1-153.34,2.24l22.37-16.13a77.69,77.69,0,0,0,106.15.32H263a98.36,98.36,0,0,1-10.25,13.42Zm73.91-.41-.56,1.14L304.08,213H226.39a73.32,73.32,0,0,1-101,1.21c-.38-.35-.73-.72-1.09-1.08V213H45L23.24,230.93l.36.73-.39-.77a150.47,150.47,0,0,1,0-130.11l22.65,18.69h77.9a73.31,73.31,0,0,1,101-1.21c.37.35.72.72,1.09,1.08v.13h79.25l21.73-17.92a150.48,150.48,0,0,1,0,128.57Z" transform="translate(-4.29 -4)" fill="#0089c0"/><path d="M91.7,250.44,98,255.49,88.4,271.87l.06.05L104,260.37l6.27,5L92.5,285.17l-3.85-3.11,14.18-15.81h-.06l-17.89,12.8-3.28-2.64L92.07,257.6l-.06,0-14.17,15.8L74,270.25Z" transform="translate(-4.29 -4)" fill="#0089c0"/><path d="M128.87,274.57l6.32,2.43-3.56,26.66-5.33-2,1-5.55-6.75-2.59-3.34,4.64-5.34-2.05Zm-5.79,15.27,5,2L130.22,280h-.06Z" transform="translate(-4.29 -4)" fill="#0089c0"/><path d="M155.56,282.44l10.16.88c4.5.4,7,2.93,6.61,7.31-.34,3.45-2,5.63-5.17,6v.07c3.7.8,4.07,2.81,3.62,8.3-.23,2.71-.21,4.14.77,4.74v.21l-6-.51a5.05,5.05,0,0,1-.42-2.79l.34-5c.11-2-.72-3.36-2.89-3.55l-2.94-.26L158.6,308.8l-5.5-.49Zm4.4,11.78,2.29.21c2.63.23,4.23-.72,4.5-3.51.23-2.4-1-3.71-3.47-3.91l-2.59-.23Z" transform="translate(-4.29 -4)" fill="#0089c0"/><path d="M194.28,282.11l2.13,10.22h.07l4.73-11.5,5.88-1.11-5,12.31,11.17,13.05-6.1,1.14-7.71-9.43-1.4,3.27,1.57,7.58-5.41,1-5.3-25.52Z" transform="translate(-4.29 -4)" fill="#0089c0"/><path d="M234,268.32l2.07,3.82-8.67,4.24,2.89,5.44,8.19-4,2.06,3.83-8.19,4,3.37,6.22,9-4.4,2.07,3.82-14,6.83L220.3,275Z" transform="translate(-4.29 -4)" fill="#0089c0"/><path d="M258.38,249.57l3.06,3.17L257,256.58l15.42,16-4.06,3.55-15.47-16L248.51,264l-3.06-3.17Z" transform="translate(-4.29 -4)" fill="#0089c0"/><path d="M75,72.73c-3-2.51-4.81-3-6.46-1.26-1.86,2-.2,4.22,5.6,9.11,6.19,5.22,8.07,5.33,9.63,3.66,1.32-1.43,1.52-3.11-2.89-6.83l3.67-3.91c4.42,3.73,7.26,8,2.45,13.13-5.5,5.85-10.6,2.92-16.83-2.37s-9.95-9.69-4.46-15.61c5.26-5.6,10-2.36,13,.16Z" transform="translate(-4.29 -4)" fill="#0089c0"/><path d="M103.57,40.18,106,43.81l-8.26,5L101.19,54,109,49.27l2.43,3.63-7.77,4.68,3.94,5.85,8.58-5.16,2.43,3.62-13.25,8L90.64,48Z" transform="translate(-4.29 -4)" fill="#0089c0"/><path d="M132.11,28.79l11.57,15.39h.08L138.61,27l4.87-1.33,7.53,25-6,1.69L133.19,36.62h-.07l5.27,17.51-4.87,1.32-7.54-25Z" transform="translate(-4.29 -4)" fill="#0089c0"/><path d="M184.7,22.94l-.07,4.29-6-.09-.37,21.69-5.53-.09.38-21.68-6-.06.07-4.29Z" transform="translate(-4.29 -4)" fill="#0089c0"/><path d="M208,26.13l9.78,2.76c4.34,1.23,6.31,4.14,5,8.39-1,3.32-3.13,5.15-6.3,4.88v.07c3.46,1.47,3.42,3.51,1.85,8.78-.78,2.63-1.06,4-.22,4.8L218,56l-5.73-1.62a4.77,4.77,0,0,1,.15-2.8l1.35-4.82c.54-2,0-3.43-2.14-4l-2.83-.8-3.3,10.53L200.24,51Zm1.88,12.38,2.2.63c2.55.71,4.31.07,5.15-2.62.72-2.3-.21-3.81-2.6-4.49l-2.5-.7Z" transform="translate(-4.29 -4)" fill="#0089c0"/><path d="M252.32,43.89l5.7,3.57L249,72.94l-4.82-3,2.14-5.25-6.08-3.81L236,64.76l-4.82-3Zm-8.81,13.89L248,60.59l4.59-11.15h-.07Z" transform="translate(-4.29 -4)" fill="#0089c0"/><path d="M260.32,83.12l20.82-16.9,3.58,4-17.35,14.1,6.35,7.06-3.47,2.79Z" transform="translate(-4.29 -4)" fill="#0089c0"/><path d="M141.62,251.9l1.59.55,3.85-10-1.35.21-1.33.21-.06-.26,1.32-.21c.38-.06.75-.12,1.09-.2a10,10,0,0,0,1.07-.29c.36-.11.77-.25,1.22-.43l.68.23-4.45,11.48,1.56.55-.09.22-5.22-1.82Z" transform="translate(-4.29 -4)" fill="#0089c0"/><path d="M160.58,255.55a1,1,0,0,1,.42-.77,1.4,1.4,0,0,1,.9-.15h.3a.79.79,0,0,1,.3.12.6.6,0,0,1,.2.25.62.62,0,0,1,.05.38,2,2,0,0,1-.07.26l-.11.32-.12.32a1.82,1.82,0,0,0-.07.25.87.87,0,0,0,.06.45.63.63,0,0,0,.25.26.92.92,0,0,0,.36.13l.36.05a2.09,2.09,0,0,0,1.4-.29,3.12,3.12,0,0,0,1-1.13,7.08,7.08,0,0,0,.64-1.79,22.35,22.35,0,0,0,.39-2.29h0l-.32.32a2.91,2.91,0,0,1-.46.32,2.38,2.38,0,0,1-.69.2,3.09,3.09,0,0,1-1,0,4.07,4.07,0,0,1-1.52-.46,4.24,4.24,0,0,1-1.21-1,3.82,3.82,0,0,1-.74-1.32,3.44,3.44,0,0,1-.15-1.53,3.1,3.1,0,0,1,.55-1.44,4.34,4.34,0,0,1,1.12-1.14,5.24,5.24,0,0,1,1.48-.68,4.4,4.4,0,0,1,1.62-.12,4.49,4.49,0,0,1,1.74.55,3.86,3.86,0,0,1,1.31,1.2,4.83,4.83,0,0,1,.75,1.78,6.64,6.64,0,0,1,.07,2.31,12.61,12.61,0,0,1-.64,2.78,7.18,7.18,0,0,1-1.22,2.22,4.76,4.76,0,0,1-1.81,1.39,4.51,4.51,0,0,1-2.43.32,4.66,4.66,0,0,1-1.47-.36,2.76,2.76,0,0,1-.85-.57,1.69,1.69,0,0,1-.37-.65A2.15,2.15,0,0,1,160.58,255.55Zm4-2.92a2.26,2.26,0,0,0,1.42-.26,2,2,0,0,0,.88-1.06,4.54,4.54,0,0,0,.12-.53,6.62,6.62,0,0,1,.13-.8,11.8,11.8,0,0,0,.1-2.45,3.49,3.49,0,0,0-.34-1.35,1.27,1.27,0,0,0-.6-.59,2.59,2.59,0,0,0-.68-.16,2.06,2.06,0,0,0-.74,0,1.24,1.24,0,0,0-.68.47,3.56,3.56,0,0,0-.58,1.15,9.46,9.46,0,0,0-.41,2,5.36,5.36,0,0,0,.12,2.58,1.46,1.46,0,0,0,1.26.87Z" transform="translate(-4.29 -4)" fill="#0089c0"/><path d="M181.15,256.42a.94.94,0,0,1,.21-.83,1.38,1.38,0,0,1,.84-.35h.31a.73.73,0,0,1,.58.25.78.78,0,0,1,.13.37,1.13,1.13,0,0,1,0,.26v.67a1.22,1.22,0,0,0,0,.27.87.87,0,0,0,.16.43.84.84,0,0,0,.31.19,1,1,0,0,0,.38.05h.36a2,2,0,0,0,1.3-.59,3.07,3.07,0,0,0,.69-1.31,6.67,6.67,0,0,0,.18-1.89,20.11,20.11,0,0,0-.17-2.32h0c-.07.11-.14.24-.23.37a1.9,1.9,0,0,1-.38.42,2.47,2.47,0,0,1-.61.35,3.64,3.64,0,0,1-.91.21,3.93,3.93,0,0,1-1.6-.13,4.63,4.63,0,0,1-1.4-.67,3.87,3.87,0,0,1-1.05-1.12,3.74,3.74,0,0,1-.51-1.46,3.32,3.32,0,0,1,.19-1.53,4.33,4.33,0,0,1,.82-1.35,4.86,4.86,0,0,1,1.28-1,4.19,4.19,0,0,1,1.54-.48,4.49,4.49,0,0,1,1.82.17,4.11,4.11,0,0,1,1.57.87,5.37,5.37,0,0,1,1.17,1.58,6.86,6.86,0,0,1,.62,2.23,13.58,13.58,0,0,1,.05,2.85,7.24,7.24,0,0,1-.65,2.42,4.88,4.88,0,0,1-1.43,1.76,4.52,4.52,0,0,1-2.29.83,4.31,4.31,0,0,1-1.52,0,2.56,2.56,0,0,1-1-.37,1.47,1.47,0,0,1-.51-.54A1.38,1.38,0,0,1,181.15,256.42Zm3.14-3.73a2.39,2.39,0,0,0,1.32-.57,1.78,1.78,0,0,0,.59-1.22,5,5,0,0,0,0-.55,3.33,3.33,0,0,0-.07-.81,11.62,11.62,0,0,0-.49-2.4,3.56,3.56,0,0,0-.67-1.24,1.28,1.28,0,0,0-.72-.43,2.66,2.66,0,0,0-.69,0,2,2,0,0,0-.72.2,1.26,1.26,0,0,0-.54.62,3.51,3.51,0,0,0-.29,1.23,11.22,11.22,0,0,0,.08,2.09,5.52,5.52,0,0,0,.75,2.48,1.53,1.53,0,0,0,1.45.6Z" transform="translate(-4.29 -4)" fill="#0089c0"/><path d="M200.61,251.63a2.44,2.44,0,0,1,.07-2.14,5.26,5.26,0,0,1,.63-.91c.25-.29.53-.6.84-.9-.37-.05-.72-.12-1-.18a3.71,3.71,0,0,1-1-.33,3.15,3.15,0,0,1-.76-.6,3.4,3.4,0,0,1-.6-1,3,3,0,0,1-.18-1.35A2.9,2.9,0,0,1,199,243a4.18,4.18,0,0,1,1-1.05,5.69,5.69,0,0,1,1.4-.74,4.46,4.46,0,0,1,1.31-.24,3.74,3.74,0,0,1,1.2.16,3.09,3.09,0,0,1,1,.54,2.06,2.06,0,0,1,.61.87,2.09,2.09,0,0,1,0,1.59,4.94,4.94,0,0,1-1.28,1.73,6.76,6.76,0,0,1,2.61.63,3,3,0,0,1,1.44,1.64,3.14,3.14,0,0,1,.2,1.39,4.28,4.28,0,0,1-.36,1.5,4,4,0,0,1-1,1.34,3.94,3.94,0,0,1-1.56,1,4.88,4.88,0,0,1-1.56.28,4.31,4.31,0,0,1-1.47-.19,3.3,3.3,0,0,1-1.19-.65A2.45,2.45,0,0,1,200.61,251.63Zm3.36-5.85c.06-.1.11-.21.16-.31a1.25,1.25,0,0,0,.09-.46,3.05,3.05,0,0,0-.08-.74,11.77,11.77,0,0,0-.36-1.15l-.26-.57a3.22,3.22,0,0,0-.48-.68,1.8,1.8,0,0,0-.72-.45,1.58,1.58,0,0,0-1,.05,2.12,2.12,0,0,0-.74.43,1.84,1.84,0,0,0-.44.63,2,2,0,0,0-.17.76,2.05,2.05,0,0,0,.16.81,2.24,2.24,0,0,0,.54.85,2.75,2.75,0,0,0,.85.48,4.66,4.66,0,0,0,1.11.23c.42.06.87.1,1.37.13Zm-1.53,5.13a5.31,5.31,0,0,0,.66,1.3,2.7,2.7,0,0,0,.75.72,1.59,1.59,0,0,0,.81.24,2.46,2.46,0,0,0,.86-.13,2.65,2.65,0,0,0,1.06-.65,2,2,0,0,0,.49-.85,2.33,2.33,0,0,0,.07-.91,3.24,3.24,0,0,0-.19-.83,2.93,2.93,0,0,0-.46-.83,2.41,2.41,0,0,0-.6-.55,2.47,2.47,0,0,0-.77-.32c-.32-.08-.64-.13-1-.18l-1.71-.22a1.76,1.76,0,0,0-.4.78,3,3,0,0,0,0,.85,4.06,4.06,0,0,0,.18.84c.09.27.18.53.27.75Z" transform="translate(-4.29 -4)" fill="#0089c0"/><path d="M140.22,94.8l1.52-.61-4.82-10.81-1.53.61-.1-.22,10-4,1.19,2.69-.21.09a6.72,6.72,0,0,0-.59-.57,3.94,3.94,0,0,0-1-.59,3.75,3.75,0,0,0-1.22-.33,3.31,3.31,0,0,0-1.52.27l-2.65,1,2.17,4.88,1-.37a2.9,2.9,0,0,0,1-.59,1.94,1.94,0,0,0,.5-.76,2.89,2.89,0,0,0,.14-.92,5.81,5.81,0,0,0-.14-1.1l.22-.08,2.18,4.88-.21.09c-.22-.27-.45-.54-.68-.77a3.11,3.11,0,0,0-.75-.59,2.31,2.31,0,0,0-.89-.24,2.22,2.22,0,0,0-1,.2l-1.12.44,2.53,5.7,2.73-1.09a3.85,3.85,0,0,0,1.27-.8,3.51,3.51,0,0,0,.79-1.12,4.2,4.2,0,0,0,.34-1.34,6,6,0,0,0-.09-1.47l.21-.09,1.55,3.45L140.32,95Z" transform="translate(-4.29 -4)" fill="#0089c0"/><path d="M159.16,87.78a1.1,1.1,0,0,1,.2-.91,1.27,1.27,0,0,1,.81-.52,1.31,1.31,0,0,1,1,.2,1.16,1.16,0,0,1,.54.77,1.1,1.1,0,0,1-.2.91,1.22,1.22,0,0,1-.81.51,1.3,1.3,0,0,1-1-.18A1.11,1.11,0,0,1,159.16,87.78Z" transform="translate(-4.29 -4)" fill="#0089c0"/><path d="M170.8,83.43h.27a2.65,2.65,0,0,0,.13.53,5.59,5.59,0,0,0,.67,1.52,4.07,4.07,0,0,0,.61.76,3.61,3.61,0,0,0,.8.61,4,4,0,0,0,.74.31,2.48,2.48,0,0,0,.66.12h.59a4,4,0,0,0,1.57-.26,3,3,0,0,0,1-.7,2.28,2.28,0,0,0,.52-.86,3,3,0,0,0,.16-.79,1.79,1.79,0,0,0-.3-1,2.65,2.65,0,0,0-.83-.7,6.35,6.35,0,0,0-1.18-.48L174.8,82a13.62,13.62,0,0,1-1.37-.49,4.68,4.68,0,0,1-1.18-.69,3.36,3.36,0,0,1-.82-1,3.59,3.59,0,0,1-.29-1.55,2.85,2.85,0,0,1,.35-1.31,3.68,3.68,0,0,1,.92-1.12,4.48,4.48,0,0,1,1.39-.76,4.77,4.77,0,0,1,1.76-.27,3.65,3.65,0,0,1,1,.12,7.1,7.1,0,0,1,.79.22l.61.23a1.28,1.28,0,0,0,.47.1.5.5,0,0,0,.34-.06,1.05,1.05,0,0,0,.17-.29h.29l-.06,3.25H179c-.13-.39-.29-.78-.44-1.18a4.51,4.51,0,0,0-.6-1.07,2.78,2.78,0,0,0-1-.78,3.24,3.24,0,0,0-1.46-.32,3.9,3.9,0,0,0-1.27.18,2.75,2.75,0,0,0-1,.48,2.15,2.15,0,0,0-.59.68,1.85,1.85,0,0,0-.22.76,1.62,1.62,0,0,0,.32,1,3,3,0,0,0,.87.68,6.84,6.84,0,0,0,1.22.51l1.43.45a15,15,0,0,1,1.42.5,4.81,4.81,0,0,1,1.22.71,3.2,3.2,0,0,1,.86,1,2.82,2.82,0,0,1,.31,1.45,3.69,3.69,0,0,1-.39,1.59,4.13,4.13,0,0,1-1,1.31,4.91,4.91,0,0,1-1.6.88,5.58,5.58,0,0,1-2,.31,5.1,5.1,0,0,1-1.11-.12l-1-.24-.84-.24a2.64,2.64,0,0,0-.56-.11.75.75,0,0,0-.36.07.83.83,0,0,0-.2.32h-.29Z" transform="translate(-4.29 -4)" fill="#0089c0"/><path d="M188.84,87.49a1.2,1.2,0,0,1,.55-.77,1.3,1.3,0,0,1,1-.18,1.2,1.2,0,0,1,.81.52,1.1,1.1,0,0,1,.2.91,1.16,1.16,0,0,1-.55.77,1.33,1.33,0,0,1-1,.19,1.29,1.29,0,0,1-.82-.53A1.09,1.09,0,0,1,188.84,87.49Z" transform="translate(-4.29 -4)" fill="#0089c0"/><path d="M208.34,81.64l-.58-.24a5.16,5.16,0,0,0-1.16-.34,2.65,2.65,0,0,0-1,0,3,3,0,0,0-1.05.54,8.55,8.55,0,0,0-1.15,1.1l-.21-.09,1.31-2.92L214.85,84l-1.31,2.88-.21-.09a7.94,7.94,0,0,0,.06-1.54,2.59,2.59,0,0,0-.31-1.09,2.39,2.39,0,0,0-.69-.76,4.22,4.22,0,0,0-1-.57l-.6-.24-4.89,10.73,1.53.62-.11.23L201.82,92l.1-.22,1.53.62Z" transform="translate(-4.29 -4)" fill="#0089c0"/><polygon points="49.07 196.49 71.52 196.49 71.52 171.17 99.49 171.17 99.49 154.52 71.52 154.52 71.52 147.05 104.1 147.05 104.1 129.19 49.07 129.19 49.07 196.49" fill="#0089c0"/><polygon points="266.48 129.19 266.48 152.28 247.13 152.28 247.13 129.19 224.68 129.19 224.68 196.49 247.13 196.49 247.13 170.15 266.48 170.15 266.48 196.49 288.93 196.49 288.93 129.19 266.48 129.19" fill="#0089c0"/><path d="M185.87,182a2.23,2.23,0,1,0,2.35,2.24A2.29,2.29,0,0,0,185.87,182Z" transform="translate(-4.29 -4)" fill="#0089c0"/><path d="M206.64,162.36a80.67,80.67,0,0,0-15.81-4.61c-3.48-.7-7-1.12-10.32-2.47a2.67,2.67,0,0,1-2-2.75c.12-1.43,1.27-2,2.5-2.33a10.8,10.8,0,0,1,2.47-.26,37.18,37.18,0,0,1,19.85,5.59c1.36.82,1.93.73,2.89-.51,2.89-4,5.92-8,9-11.84,1.23-1.51,1.16-2.25-.56-3.37-8.91-5.77-18.91-7.71-29.44-7.85-8.92,0-17.39,1.37-24.25,7.34-8.92,7.74-9.42,21.46-1.07,28.38,3.61,3,8.35,3.8,13,4.42a14.71,14.71,0,0,0,2.29-8s6.14,4.36,6.1,9c2.89.35,5.85.68,8.74,1.16,4.49.75,7.46,3.69,7.48,6.92s-3.43,7-8,7.63a39.51,39.51,0,0,1-10.42,0c-1.1-.16-2.16-.37-3.2-.58-4.53,4-9.29,4.39-14.69,2.24,0,0,5.56-2,7-4.41a43.79,43.79,0,0,1-10.51-5.25l-7.1,9.25-.08.09-.69.89,5,2.82.09.05.36.2,1.93,1.1.33.19-.06,0c11,5.79,22.92,7.37,35.46,6.29a36.06,36.06,0,0,0,16.38-5.39C220.34,189.4,223.67,169.53,206.64,162.36Z" transform="translate(-4.29 -4)" fill="#0089c0"/><path d="M135.92,147.07c-4.82,4.11-10.85.17-10.85.17,2-4.77,8.54-3.24,8.54-3.24-3.66-3.17-1.18-8.69-1.22-8.7C141.62,139.51,137,146,137,146h0a18.36,18.36,0,0,1,5.31,3.8V133.19H119.83v67.3h22.45V168.14C140.87,156.32,137.72,149.88,135.92,147.07Z" transform="translate(-4.29 -4)" fill="#0089c0"/></svg>